<svg width="735" height="735" viewBox="0 0 735 735" fill="none" xmlns="http://www.w3.org/2000/svg">
<path d="M0 187.264C0 83.8408 83.8409 0 187.264 0H547.638C651.061 0 734.901 83.8409 734.901 187.264V547.638C734.901 651.061 651.06 734.901 547.637 734.901H187.264C83.8408 734.901 0 651.06 0 547.637V187.264Z" fill="#202020"/>
<path d="M262.372 96.0037C328.648 96.0037 387.566 130.069 421.82 181.642C424.437 185.581 428.401 188.469 433.016 189.504L578.586 222.119C634.565 234.661 669.993 289.959 657.987 346.056L613.388 554.449C601.219 611.308 545.007 647.326 488.266 634.617L273.997 586.623C254.992 582.366 241.111 567.449 237.274 549.552C235.237 540.052 228.896 530.947 219.45 528.676C136.339 508.69 74.5776 433.876 74.5774 344.633V282.327C74.5773 179.425 159.469 96.0041 262.372 96.0037Z" fill="#EFFF10"/>
<path d="M203.944 362.008C204.892 372.201 208.092 380.972 213.544 388.32C219.233 395.669 226.582 401.239 235.59 405.032C244.834 408.825 255.264 410.721 266.88 410.721C283.473 410.721 296.866 407.64 307.059 401.477C317.489 395.076 322.704 385.95 322.704 374.098C322.704 366.038 319.86 359.756 314.171 355.252C308.482 350.748 300.896 347.193 291.414 344.585C282.169 341.978 271.976 339.607 260.835 337.474C249.694 335.103 238.434 332.496 227.056 329.651C215.915 326.57 205.603 322.421 196.121 317.206C186.876 311.754 179.409 304.524 173.72 295.516C168.031 286.271 165.186 274.419 165.186 259.959C165.186 246.21 169.216 233.884 177.276 222.98C185.572 211.838 197.069 203.068 211.766 196.667C226.463 190.03 243.649 186.711 263.324 186.711C281.34 186.711 297.577 190.386 312.037 197.734C326.734 204.846 338.35 214.802 346.883 227.602C355.417 240.166 359.684 254.744 359.684 271.337H318.082C317.134 255.929 312.037 244.077 302.792 235.78C293.785 227.247 280.036 222.98 261.546 222.98C243.056 222.98 229.071 226.417 219.589 233.291C210.344 239.929 205.722 248.818 205.722 259.959C205.722 268.73 208.566 275.604 214.255 280.582C219.944 285.323 227.411 289.116 236.656 291.961C246.138 294.568 256.45 296.939 267.591 299.072C278.969 300.968 290.229 303.457 301.37 306.539C312.511 309.384 322.704 313.413 331.949 318.628C341.431 323.606 349.017 330.599 354.706 339.607C360.632 348.378 363.595 359.875 363.595 374.098C363.595 397.328 354.824 415.344 337.283 428.144C319.978 440.708 295.8 446.99 264.746 446.99C245.545 446.99 228.241 443.315 212.833 435.967C197.662 428.381 185.572 418.188 176.565 405.388C167.794 392.587 163.053 378.127 162.342 362.008H203.944Z" fill="black"/>
<path d="M467.258 540.77L397.072 269.994L439.057 279.394L508.896 550.092L467.258 540.77ZM384.928 267.275L421.014 275.354L366.633 518.241L330.547 510.161L384.928 267.275ZM539.334 301.845L575.767 310.002L521.387 552.889L484.954 544.732L539.334 301.845Z" fill="black"/>
</svg>
