<svg width="17" height="17" viewBox="0 0 17 17" fill="none" xmlns="http://www.w3.org/2000/svg">
    <path d="M4.78561 5.38244L7.93395 2.0055V12.5377C7.93395 12.8508 8.18772 13.1043 8.50054 13.1043C8.81335 13.1043 9.06712 12.8505 9.06712 12.5377V2.0055L12.2155 5.38244C12.327 5.50218 12.4784 5.56263 12.63 5.56263C12.7687 5.56263 12.9072 5.51225 13.0166 5.41056C13.2455 5.19733 13.258 4.8386 13.0445 4.60967L8.91505 0.180188C8.91294 0.177845 8.91036 0.176439 8.90825 0.17433C8.80515 0.0672483 8.66105 0 8.50054 0C8.34002 0 8.19592 0.0672483 8.09282 0.17433C8.09071 0.176439 8.08813 0.177845 8.08602 0.180188L3.95681 4.60967C3.74358 4.8386 3.756 5.1971 3.9847 5.41056C4.21363 5.62379 4.57238 5.6116 4.78584 5.38244H4.78561Z" fill="#1A1D56" fill-opacity="0.55"/>
    <path d="M16.4334 10.3145C16.1204 10.3145 15.8668 10.5682 15.8668 10.881V14.1664C15.8668 15.1038 15.1043 15.8663 14.1668 15.8663H2.83341C1.89589 15.8663 1.13341 15.1038 1.13341 14.1664V10.881C1.13341 10.568 0.879642 10.3145 0.566823 10.3145C0.254004 10.3145 0 10.5682 0 10.8813V14.1666C0 15.729 1.27119 16.9999 2.83341 16.9999H14.1668C15.729 16.9999 17.0002 15.729 17.0002 14.1666V10.8813C17.0002 10.5682 16.7465 10.3147 16.4336 10.3147L16.4334 10.3145Z" fill="#1A1D56" fill-opacity="0.55"/>
</svg>